<svg width="16" height="16" viewBox="0 0 16 16" fill="none" xmlns="http://www.w3.org/2000/svg">
<path fill-rule="evenodd" clip-rule="evenodd" d="M10.9485 9.75079L14.0001 6.59L9.79169 5.9402L8.00005 2.08263L6.20842 5.9402L2.00005 6.59L5.0516 9.75079L4.35241 14.0826L8.00005 12.0449L11.6477 14.0826L10.9485 9.75079ZM10.8517 15.6909L8.00007 14.1301L5.14842 15.6909C3.56022 16.5602 2.16812 15.5043 2.47101 13.6657L3.01563 10.3597L0.708598 8.01836C-0.576285 6.71439 -0.0418824 5.00965 1.73128 4.7414L4.91951 4.25906L6.34534 1.25118C6.74419 0.409762 7.37625 -0.00563579 8.00769 5.77347e-05C8.63677 0.00573 9.26523 0.429354 9.66185 1.26605L11.0806 4.25906L14.2689 4.7414C16.0445 5.01003 16.5746 6.71623 15.2915 8.01836L12.9845 10.3597L13.5291 13.6657C13.8324 15.5069 12.4377 16.559 10.8517 15.6909Z" fill="#171717"/>
</svg>
